<svg width="80" height="32" viewBox="0 0 80 32" fill="none" xmlns="http://www.w3.org/2000/svg">
<rect width="32" height="32" rx="4" fill="#577CD2"/>
<path d="M15.4055 13.5078C15.3459 12.9496 15.0945 12.5149 14.6513 12.2038C14.2124 11.8928 13.6413 11.7372 12.9382 11.7372C12.4439 11.7372 12.0199 11.8118 11.6662 11.9609C11.3125 12.1101 11.0419 12.3125 10.8544 12.5682C10.6669 12.8239 10.571 13.1158 10.5668 13.4439C10.5668 13.7166 10.6286 13.9531 10.7521 14.1534C10.88 14.3537 11.0526 14.5241 11.2699 14.6648C11.4872 14.8011 11.728 14.9162 11.9922 15.0099C12.2564 15.1037 12.5227 15.1825 12.7912 15.2464L14.0185 15.5533C14.5128 15.6683 14.9879 15.8239 15.4439 16.0199C15.9041 16.2159 16.3153 16.4631 16.6776 16.7614C17.044 17.0597 17.3338 17.4197 17.5469 17.8416C17.7599 18.2635 17.8665 18.7578 17.8665 19.3246C17.8665 20.0916 17.6705 20.767 17.2784 21.3509C16.8864 21.9304 16.3196 22.3842 15.5781 22.7124C14.8409 23.0362 13.9482 23.1982 12.8999 23.1982C11.8814 23.1982 10.9972 23.0405 10.2472 22.7251C9.50142 22.4098 8.91761 21.9496 8.49574 21.3445C8.07813 20.7393 7.85227 20.0021 7.81818 19.1328H10.1513C10.1854 19.5888 10.326 19.968 10.5732 20.2706C10.8203 20.5732 11.142 20.799 11.5384 20.9482C11.9389 21.0973 12.3864 21.1719 12.8807 21.1719C13.3963 21.1719 13.848 21.0952 14.2358 20.9418C14.6278 20.7841 14.9347 20.5668 15.1562 20.2898C15.3778 20.0085 15.4908 19.6804 15.495 19.3054C15.4908 18.9645 15.3906 18.6832 15.1946 18.4616C14.9986 18.2358 14.7237 18.0483 14.37 17.8991C14.0206 17.7457 13.6115 17.6094 13.1428 17.4901L11.6534 17.1065C10.5753 16.8295 9.72301 16.4098 9.09659 15.8473C8.47443 15.2805 8.16335 14.5284 8.16335 13.5909C8.16335 12.8196 8.37216 12.1442 8.78977 11.5646C9.21165 10.9851 9.7848 10.5355 10.5092 10.2159C11.2337 9.89204 12.054 9.73011 12.9702 9.73011C13.8991 9.73011 14.7131 9.89204 15.4119 10.2159C16.1151 10.5355 16.6669 10.9808 17.0675 11.5518C17.468 12.1186 17.6747 12.7706 17.6875 13.5078H15.4055ZM20.5984 23V13.1818H22.9123V23H20.5984ZM21.7617 11.7884C21.3952 11.7884 21.0799 11.6669 20.8157 11.424C20.5515 11.1768 20.4194 10.8807 20.4194 10.5355C20.4194 10.1861 20.5515 9.88991 20.8157 9.64702C21.0799 9.39986 21.3952 9.27628 21.7617 9.27628C22.1325 9.27628 22.4478 9.39986 22.7077 9.64702C22.972 9.88991 23.1041 10.1861 23.1041 10.5355C23.1041 10.8807 22.972 11.1768 22.7077 11.424C22.4478 11.6669 22.1325 11.7884 21.7617 11.7884Z" fill="white"/>
<path d="M35.5114 22L35.4986 20.0952H35.8374C36.093 20.0952 36.3082 20.0376 36.483 19.9226C36.6577 19.8075 36.8026 19.6158 36.9176 19.3473C37.0327 19.0746 37.1222 18.7081 37.1861 18.2479C37.25 17.7876 37.2947 17.2145 37.3203 16.5284L37.4929 12.1818H44.652V22H42.4148V14.0803H39.5959L39.4425 17.2443C39.4041 18.0625 39.3125 18.772 39.1676 19.3729C39.027 19.9695 38.8267 20.4616 38.5668 20.8494C38.3111 21.2372 37.9893 21.527 37.6016 21.7188C37.2138 21.9062 36.7557 22 36.2273 22H35.5114ZM49.9327 18.8679L53.8638 12.1818H56.2417V22H54.0044V15.3075L50.0861 22H47.7019V12.1818H49.9327V18.8679ZM59.3379 22V12.1818H61.6518V16.1449H62.4956L65.4487 12.1818H68.2356L64.5986 17.0014L68.274 22H65.4743L62.7832 18.299H61.6518V22H59.3379ZM74.1843 22.1918C73.2042 22.1918 72.3626 21.9766 71.6595 21.5462C70.9606 21.1158 70.4215 20.5213 70.0423 19.7628C69.6673 19 69.4798 18.1222 69.4798 17.1293C69.4798 16.1321 69.6715 15.2521 70.0551 14.4893C70.4386 13.7223 70.9798 13.1257 71.6786 12.6996C72.3818 12.2692 73.2127 12.054 74.1715 12.054C74.9684 12.054 75.6737 12.201 76.2873 12.495C76.9052 12.7848 77.3974 13.196 77.7639 13.7287C78.1303 14.2571 78.3392 14.875 78.3903 15.5824H76.1786C76.0892 15.1094 75.8761 14.7152 75.5394 14.3999C75.2071 14.0803 74.7617 13.9205 74.2035 13.9205C73.7305 13.9205 73.315 14.0483 72.9571 14.304C72.5991 14.5554 72.32 14.9176 72.1197 15.3906C71.9237 15.8636 71.8257 16.4304 71.8257 17.0909C71.8257 17.7599 71.9237 18.3352 72.1197 18.8168C72.3157 19.294 72.5906 19.6626 72.9443 19.9226C73.3022 20.1783 73.722 20.3061 74.2035 20.3061C74.5444 20.3061 74.8491 20.2422 75.1176 20.1143C75.3903 19.9822 75.6183 19.7926 75.8015 19.5455C75.9848 19.2983 76.1105 18.9979 76.1786 18.6442H78.3903C78.3349 19.3388 78.1303 19.9545 77.7767 20.4915C77.423 21.0241 76.9414 21.4418 76.3321 21.7443C75.7227 22.0426 75.0068 22.1918 74.1843 22.1918Z" fill="#577CD2"/>
</svg>
